<?xml version="1.0" encoding="utf-8" ?>
<svg baseProfile="tiny" height="1024" version="1.2" width="1024" xmlns="http://www.w3.org/2000/svg" xmlns:ev="http://www.w3.org/2001/xml-events" xmlns:xlink="http://www.w3.org/1999/xlink"><defs /><polygon fill="black" points="491,20 490,21 483,21 482,22 476,22 475,23 469,23 468,24 464,24 463,25 460,25 459,26 455,26 454,27 451,27 450,28 447,28 446,29 444,29 443,30 440,30 439,31 437,31 436,32 433,32 432,33 430,33 429,34 428,34 427,35 425,35 424,36 422,36 421,37 419,37 418,38 417,38 416,39 414,39 413,40 412,40 411,41 409,41 408,42 407,42 406,43 405,43 404,44 402,44 401,45 400,45 399,46 398,46 397,47 396,47 395,48 394,48 393,49 392,49 391,50 390,50 389,51 387,51 386,52 385,52 384,53 383,53 382,54 381,54 380,55 379,55 377,57 376,57 375,58 374,58 373,59 372,59 371,60 370,60 369,61 368,61 367,62 366,62 364,64 363,64 362,65 361,65 359,67 358,67 357,68 356,68 354,70 353,70 352,71 351,71 349,73 348,73 347,74 346,74 344,76 343,76 341,78 340,78 338,80 337,80 335,82 334,82 332,84 331,84 329,86 328,86 325,89 324,89 322,91 321,91 319,93 318,93 315,96 314,96 312,98 311,98 308,101 307,101 303,105 302,105 297,110 296,110 292,114 291,114 285,120 284,120 277,127 276,127 264,139 263,139 243,159 243,160 232,171 232,172 226,178 226,179 222,183 222,184 218,188 218,189 214,193 214,194 211,197 211,198 207,202 207,203 204,206 204,207 201,210 201,211 198,214 198,215 196,217 196,218 193,221 193,222 191,224 191,225 188,228 188,229 186,231 186,232 184,234 184,235 182,237 182,238 180,240 180,241 178,243 178,244 176,246 176,247 174,249 174,250 172,252 172,253 170,255 170,256 168,258 168,259 167,260 167,261 165,263 165,264 164,265 164,266 162,268 162,269 161,270 161,271 160,272 160,273 159,274 159,275 158,276 158,277 157,278 157,279 156,280 156,281 155,282 155,283 154,284 154,285 153,286 153,287 152,288 152,289 151,290 151,291 150,292 150,293 149,294 149,295 148,296 148,297 147,298 147,299 146,300 146,301 145,302 145,303 144,304 144,306 143,307 143,308 142,309 142,310 141,311 141,312 140,313 140,315 139,316 139,317 138,318 138,320 137,321 137,322 136,323 136,325 135,326 135,328 134,329 134,330 133,331 133,333 132,334 132,336 131,337 131,339 130,340 130,342 129,343 129,345 128,346 128,348 127,349 127,351 126,352 126,354 125,355 125,358 124,359 124,361 123,362 123,365 122,366 122,369 121,370 121,373 120,374 120,378 119,379 119,383 118,384 118,388 117,389 117,397 116,398 116,407 115,408 115,425 116,426 116,434 117,435 117,440 118,441 118,445 119,446 119,449 120,450 120,452 121,453 121,455 122,456 122,458 123,459 123,460 124,461 124,463 125,464 125,465 126,466 126,467 127,468 127,469 128,470 128,471 129,472 129,473 130,474 130,475 131,476 131,477 132,478 132,479 134,481 134,482 136,484 136,485 138,487 138,488 141,491 141,492 144,495 144,496 161,513 162,513 165,516 166,516 168,518 168,519 167,520 167,525 166,526 166,531 165,532 165,538 164,539 164,547 163,548 163,582 164,583 163,584 164,585 164,592 165,593 165,597 166,598 166,603 167,604 167,607 168,608 168,611 169,612 169,615 170,616 170,618 171,619 171,621 172,622 172,624 173,625 173,627 174,628 174,630 175,631 175,632 176,633 176,634 177,635 177,637 178,638 178,639 179,640 179,641 180,642 180,643 181,644 181,645 182,646 182,647 183,648 183,649 185,651 185,652 186,653 186,654 188,656 188,657 189,658 189,659 192,662 192,663 195,666 195,667 204,676 204,677 203,678 203,679 201,681 200,681 192,689 191,689 187,693 186,693 184,695 183,695 180,698 179,698 177,700 176,700 175,701 174,701 172,703 171,703 169,705 168,705 167,706 166,706 165,707 164,707 163,708 161,708 160,709 159,709 158,710 157,710 156,711 154,711 153,712 151,712 150,713 148,713 147,714 146,714 145,715 143,715 142,716 140,716 139,717 138,717 137,718 135,718 134,719 133,719 132,720 131,720 130,721 129,721 127,723 126,723 125,724 124,724 122,726 121,726 117,730 116,730 111,735 111,736 107,740 107,741 105,743 105,744 104,745 104,746 103,747 103,748 102,749 102,750 101,751 101,752 100,753 100,755 99,756 99,760 98,761 98,781 99,782 99,786 100,787 100,790 101,791 101,793 102,794 102,796 103,797 103,798 104,799 104,800 105,801 105,802 106,803 106,804 108,806 108,807 111,810 111,811 115,815 115,816 116,816 117,817 117,818 118,819 119,819 124,824 125,824 128,827 129,827 131,829 132,829 133,830 134,830 135,831 136,831 137,832 138,832 139,833 141,833 142,834 143,834 144,835 146,835 147,836 150,836 151,837 155,837 156,838 162,838 163,839 186,839 187,838 192,838 193,837 198,837 199,836 202,836 203,835 206,835 207,834 210,834 211,833 213,833 214,832 216,832 217,831 219,831 220,830 221,830 222,829 224,829 225,828 226,828 227,827 229,827 230,826 231,826 232,825 233,825 234,824 235,824 236,823 237,823 238,822 239,822 241,820 242,820 243,819 244,819 246,817 247,817 248,816 249,816 251,814 252,814 254,812 255,812 258,809 259,809 262,806 263,806 266,803 267,804 267,805 266,806 266,807 265,808 265,809 264,810 264,812 263,813 263,815 262,816 262,818 261,819 261,821 260,822 260,825 259,826 259,829 258,830 258,834 257,835 257,839 256,840 256,863 257,864 257,867 258,868 258,872 259,873 259,875 260,876 260,877 261,878 261,880 263,882 263,883 264,884 264,885 266,887 266,888 269,891 269,892 276,899 277,899 280,902 281,902 283,904 284,904 285,905 286,905 287,906 288,906 289,907 290,907 291,908 292,908 293,909 295,909 296,910 298,910 299,911 302,911 303,912 307,912 308,913 333,913 334,912 337,912 338,911 341,911 342,910 345,910 346,909 348,909 349,908 351,908 352,907 354,907 355,906 356,906 357,905 358,905 359,904 360,904 361,903 362,903 363,902 364,902 365,901 366,901 368,899 369,899 371,897 372,897 374,895 375,895 378,892 379,892 384,887 385,887 390,882 391,882 391,881 392,880 393,880 399,874 399,873 407,865 407,864 410,861 410,860 413,857 413,856 415,854 415,853 417,851 417,850 419,848 419,847 420,846 420,845 422,843 422,842 423,841 423,840 424,839 424,838 425,837 425,836 427,834 428,835 428,847 429,848 429,854 430,855 430,860 431,861 431,864 432,865 432,868 433,869 433,871 434,872 434,874 435,875 435,877 436,878 436,880 437,881 437,882 438,883 438,884 439,885 439,886 440,887 440,888 441,889 441,890 442,891 442,892 444,894 444,895 446,897 446,898 451,903 451,904 453,906 454,906 459,911 460,911 462,913 463,913 465,915 466,915 468,917 469,917 470,918 471,918 472,919 473,919 474,920 475,920 476,921 477,921 478,922 479,922 480,923 482,923 483,924 485,924 486,925 489,925 490,926 494,926 495,927 499,927 500,928 522,928 523,927 529,927 530,926 533,926 534,925 537,925 538,924 540,924 541,923 542,923 543,922 545,922 546,921 547,921 548,920 549,920 550,919 551,919 552,918 553,918 555,916 556,916 558,914 559,914 562,911 563,911 574,900 574,899 576,897 576,896 578,894 578,893 580,891 580,890 581,889 581,888 582,887 582,886 583,885 583,884 584,883 584,882 585,881 585,880 586,879 586,877 587,876 587,874 588,873 588,871 589,870 589,868 590,867 590,864 591,863 591,859 592,858 592,854 593,853 593,849 594,848 593,847 593,846 594,845 594,834 595,833 596,834 596,835 598,837 598,838 599,839 599,841 601,843 601,844 602,845 602,846 604,848 604,849 605,850 605,851 607,853 607,854 609,856 609,857 611,859 611,860 614,863 614,864 617,867 617,868 622,873 622,874 627,879 628,879 639,890 640,890 644,894 645,894 647,896 648,896 650,898 651,898 652,899 653,899 654,900 655,900 656,901 657,901 658,902 659,902 660,903 661,903 662,904 663,904 664,905 665,905 666,906 668,906 669,907 671,907 672,908 674,908 675,909 678,909 679,910 682,910 683,911 687,911 688,912 700,912 701,913 702,913 703,912 713,912 714,911 718,911 719,910 722,910 723,909 725,909 726,908 728,908 729,907 730,907 731,906 733,906 734,905 735,905 736,904 737,904 739,902 740,902 742,900 743,900 747,896 748,896 754,890 754,889 757,886 757,885 759,883 759,882 760,881 760,880 761,879 761,878 762,877 762,876 763,875 763,873 764,872 764,870 765,869 765,866 766,865 766,859 767,858 767,845 766,844 766,837 765,836 765,831 764,830 764,827 763,826 763,823 762,822 762,819 761,818 761,816 760,815 760,812 759,811 759,810 758,809 758,807 757,806 758,805 759,805 762,808 763,808 766,811 767,811 769,813 770,813 772,815 773,815 775,817 776,817 778,819 779,819 780,820 781,820 783,822 784,822 785,823 786,823 787,824 788,824 789,825 790,825 791,826 793,826 794,827 795,827 796,828 798,828 799,829 800,829 801,830 803,830 804,831 806,831 807,832 809,832 810,833 812,833 813,834 815,834 816,835 819,835 820,836 823,836 824,837 828,837 829,838 836,838 837,839 860,839 861,838 865,838 866,837 870,837 871,836 874,836 875,835 876,835 877,834 879,834 880,833 882,833 883,832 884,832 885,831 886,831 887,830 888,830 889,829 890,829 892,827 893,827 894,826 895,826 898,823 899,823 911,811 911,810 914,807 914,806 916,804 916,803 917,802 917,801 918,800 918,799 919,798 919,797 920,796 920,794 921,793 921,791 922,790 922,787 923,786 923,782 924,781 924,761 923,760 923,756 922,755 922,753 921,752 921,750 920,749 920,748 919,747 919,746 918,745 918,744 917,743 917,742 915,740 915,739 912,736 912,735 904,727 903,727 901,725 900,725 898,723 897,723 895,721 894,721 893,720 892,720 891,719 890,719 889,718 888,718 887,717 886,717 885,716 883,716 882,715 880,715 879,714 877,714 876,713 874,713 873,712 871,712 870,711 868,711 867,710 866,710 865,709 864,709 863,708 861,708 860,707 859,707 858,706 857,706 856,705 855,705 854,704 853,704 851,702 850,702 849,701 848,701 846,699 845,699 843,697 842,697 839,694 838,694 835,691 834,691 830,687 829,687 823,681 822,681 818,677 819,676 819,675 827,667 827,666 830,663 830,662 832,660 832,659 834,657 834,656 836,654 836,653 838,651 838,650 839,649 839,648 840,647 840,646 841,645 841,644 842,643 842,642 843,641 843,640 844,639 844,637 845,636 845,635 846,634 846,633 847,632 847,630 848,629 848,628 849,627 849,625 850,624 850,622 851,621 851,619 852,618 852,616 853,615 853,612 854,611 854,609 855,608 855,605 856,604 856,599 857,598 857,594 858,593 858,587 859,586 859,578 860,577 860,555 859,554 859,543 858,542 858,537 857,536 857,529 856,528 856,524 855,523 856,522 855,521 855,518 859,514 860,514 866,508 867,508 871,504 871,503 878,496 878,495 882,491 882,490 884,488 884,487 886,485 886,484 888,482 888,481 890,479 890,478 891,477 891,476 892,475 892,474 894,472 894,471 895,470 895,469 896,468 896,466 897,465 897,464 898,463 898,462 899,461 899,460 900,459 900,457 901,456 901,454 902,453 902,451 903,450 903,448 904,447 904,443 905,442 905,438 906,437 906,432 907,431 907,419 908,418 907,417 907,399 906,398 906,392 905,391 905,385 904,384 904,380 903,379 903,375 902,374 902,371 901,370 901,366 900,365 900,362 899,361 899,358 898,357 898,355 897,354 897,352 896,351 896,348 895,347 895,345 894,344 894,343 893,342 893,340 892,339 892,337 891,336 891,334 890,333 890,332 889,331 889,329 888,328 888,326 887,325 887,324 886,323 886,322 885,321 885,319 884,318 884,317 883,316 883,314 882,313 882,312 881,311 881,310 880,309 880,307 879,306 879,305 878,304 878,303 877,302 877,301 876,300 876,299 875,298 875,297 874,296 874,295 873,294 873,293 872,292 872,291 871,290 871,289 870,288 870,287 869,286 869,285 868,284 868,283 867,282 867,281 866,280 866,279 865,278 865,277 863,275 863,274 862,273 862,272 861,271 861,270 859,268 859,267 858,266 858,265 856,263 856,262 855,261 855,260 853,258 853,257 851,255 851,254 849,252 849,251 848,250 848,249 846,247 846,246 844,244 844,243 842,241 842,240 840,238 840,237 838,235 838,234 836,232 836,231 834,229 834,228 832,226 832,225 830,223 830,222 827,219 827,218 824,215 824,214 821,211 821,210 817,206 817,205 813,201 813,200 809,196 809,195 806,192 806,191 800,185 800,184 796,180 796,179 789,172 789,171 781,163 781,162 750,131 749,131 740,122 739,122 734,117 733,117 727,111 726,111 721,106 720,106 715,101 714,101 711,98 710,98 706,94 705,94 702,91 701,91 699,89 698,89 695,86 694,86 691,83 690,83 688,81 687,81 685,79 684,79 682,77 681,77 680,76 679,76 677,74 676,74 675,73 674,73 672,71 671,71 670,70 669,70 667,68 666,68 665,67 664,67 663,66 662,66 661,65 660,65 658,63 657,63 656,62 655,62 654,61 653,61 652,60 651,60 650,59 649,59 648,58 647,58 646,57 645,57 644,56 643,56 642,55 641,55 640,54 639,54 638,53 637,53 636,52 635,52 634,51 633,51 632,50 631,50 630,49 629,49 628,48 626,48 625,47 624,47 623,46 622,46 621,45 619,45 618,44 617,44 616,43 615,43 614,42 612,42 611,41 609,41 608,40 607,40 606,39 604,39 603,38 602,38 601,37 599,37 598,36 596,36 595,35 593,35 592,34 591,34 590,33 587,33 586,32 584,32 583,31 580,31 579,30 577,30 576,29 573,29 572,28 570,28 569,27 566,27 565,26 562,26 561,25 557,25 556,24 552,24 551,23 546,23 545,22 540,22 539,21 529,21 528,20" /></svg>